<svg width="32" height="32" viewBox="0 0 32 32" xmlns="http://www.w3.org/2000/svg"><title>ic-feed</title><g fill="#FFF" fill-rule="evenodd"><path d="M9.003 19.992C7.345 19.992 6 21.336 6 22.995c0 1.66 1.344 3.003 3.003 3.003 1.66 0 3.003-1.344 3.003-3.003 0-1.66-1.344-3.003-3.003-3.003z"/><path d="M8.116 12.5c-1.165 0-2.11.945-2.11 2.11 0 1.164.945 2.11 2.11 2.11 3.954 0 7.172 3.217 7.172 7.17 0 1.165.943 2.11 2.11 2.11 1.163 0 2.11-.945 2.11-2.11 0-6.28-5.11-11.39-11.392-11.39z"/><path d="M8.157 5C6.967 5 6 5.966 6 7.157c0 1.19.966 2.157 2.157 2.157 8.01 0 14.53 6.517 14.53 14.53 0 1.19.965 2.155 2.157 2.155C26.037 26 27 25.032 27 23.843 27 13.453 18.547 5 8.158 5z"/></g></svg>